<?xml version="1.0" encoding="utf-8"?>
<!-- Generator: Adobe Illustrator 19.0.1, SVG Export Plug-In . SVG Version: 6.00 Build 0)  -->
<svg version="1.1" id="Layer_1" xmlns="http://www.w3.org/2000/svg" xmlns:xlink="http://www.w3.org/1999/xlink" x="0px" y="0px"
	 viewBox="0 0 50 50" style="enable-background:new 0 0 50 50;" xml:space="preserve">
<style type="text/css">
	.st0{fill:#8BC53F;}
	.st1{fill:#231F20;}
	.st2{fill:#FFFFFF;}
</style>
<g>
	<circle class="st0" cx="25.1" cy="25.1" r="17.5"/>
	<path class="st1" d="M27.8,32.4v2c0,0.3-0.1,0.5-0.2,0.6c-0.1,0.1-0.4,0.2-0.7,0.2c-0.3,0-0.6,0-0.7-0.1c-0.1-0.1-0.2-0.3-0.2-0.5
		h0.4c0,0.1,0,0.2,0.1,0.2c0,0,0.2,0.1,0.3,0.1c0.3,0,0.4-0.1,0.4-0.4v-0.4l0,0c-0.1,0.2-0.3,0.3-0.6,0.3c-0.3,0-0.5-0.1-0.6-0.2
		C26,34,26,33.8,26,33.4c0-0.4,0.1-0.6,0.2-0.8c0.1-0.1,0.3-0.2,0.6-0.2c0.3,0,0.5,0.1,0.6,0.3h0l0-0.3H27.8z M26.9,32.8
		c-0.2,0-0.3,0-0.3,0.1c-0.1,0.1-0.1,0.2-0.1,0.5c0,0.3,0,0.4,0.1,0.5c0.1,0.1,0.2,0.1,0.3,0.1c0.2,0,0.3,0,0.4-0.1s0.1-0.2,0.1-0.5
		c0-0.3,0-0.4-0.1-0.5C27.2,32.8,27.1,32.8,26.9,32.8z"/>
	<path class="st1" d="M28.3,32.4h0.5l0,0.3l0,0c0.1-0.2,0.3-0.3,0.5-0.3c0.3,0,0.5,0.2,0.5,0.6l0,0.1h-0.4c0-0.1,0-0.1,0-0.1
		c0-0.2-0.1-0.3-0.2-0.3c-0.2,0-0.3,0.2-0.3,0.5v1.1h-0.5V32.4z"/>
	<path class="st1" d="M31.2,33.7h0.5l0,0.1c0,0.4-0.3,0.6-0.9,0.6c-0.4,0-0.6-0.1-0.8-0.2c-0.1-0.1-0.2-0.4-0.2-0.8
		c0-0.4,0.1-0.6,0.2-0.8c0.1-0.1,0.4-0.2,0.7-0.2c0.3,0,0.6,0.1,0.7,0.2c0.1,0.1,0.2,0.4,0.2,0.7l0,0.1h-1.3c0,0,0,0.1,0,0.1
		c0,0.2,0,0.3,0.1,0.4c0.1,0.1,0.2,0.1,0.4,0.1c0.2,0,0.3,0,0.3-0.1C31.2,33.9,31.2,33.9,31.2,33.7z M31.3,33.2L31.3,33.2
		c0-0.2,0-0.3-0.1-0.4c-0.1,0-0.2-0.1-0.3-0.1c-0.2,0-0.3,0-0.3,0.1c-0.1,0.1-0.1,0.2-0.1,0.4H31.3z"/>
	<path class="st1" d="M33.3,33.7h0.5l0,0.1c0,0.4-0.3,0.6-0.9,0.6c-0.4,0-0.6-0.1-0.8-0.2c-0.1-0.1-0.2-0.4-0.2-0.8
		c0-0.4,0.1-0.6,0.2-0.8c0.1-0.1,0.4-0.2,0.7-0.2c0.3,0,0.6,0.1,0.7,0.2c0.1,0.1,0.2,0.4,0.2,0.7l0,0.1h-1.3c0,0,0,0.1,0,0.1
		c0,0.2,0,0.3,0.1,0.4c0.1,0.1,0.2,0.1,0.4,0.1c0.2,0,0.3,0,0.3-0.1C33.3,33.9,33.3,33.9,33.3,33.7z M33.4,33.2L33.4,33.2
		c0-0.2,0-0.3-0.1-0.4c-0.1,0-0.2-0.1-0.3-0.1c-0.2,0-0.3,0-0.3,0.1c-0.1,0.1-0.1,0.2-0.1,0.4H33.4z"/>
	<path class="st1" d="M34.2,32.4h0.5l0,0.3l0,0c0.1-0.2,0.3-0.3,0.6-0.3c0.5,0,0.7,0.2,0.7,0.6v1.3h-0.5v-1.2v-0.1l0-0.1
		c0-0.1-0.1-0.2-0.3-0.2c-0.3,0-0.5,0.1-0.5,0.4v1.2h-0.5V32.4z"/>
	<path class="st1" d="M23.2,36.7h-0.5l0,0c0-0.1,0-0.2-0.1-0.2c0,0-0.1,0-0.3,0c-0.2,0-0.4,0.1-0.4,0.2c0,0.1,0,0.2,0.1,0.2
		c0,0,0.2,0,0.4,0c0.3,0,0.5,0.1,0.6,0.1c0.1,0.1,0.2,0.2,0.2,0.4c0,0.2-0.1,0.4-0.2,0.5c-0.1,0.1-0.4,0.1-0.7,0.1
		c-0.3,0-0.6,0-0.7-0.1c-0.1-0.1-0.2-0.2-0.2-0.5l0,0H22l0,0.1c0,0.2,0.1,0.3,0.4,0.3c0.3,0,0.4-0.1,0.4-0.3c0-0.2-0.1-0.2-0.3-0.2
		c-0.4,0-0.7,0-0.8-0.1c-0.1-0.1-0.2-0.2-0.2-0.5c0-0.2,0.1-0.4,0.2-0.5c0.1-0.1,0.4-0.1,0.7-0.1c0.3,0,0.5,0,0.7,0.1
		C23.1,36.3,23.2,36.5,23.2,36.7z"/>
	<path class="st1" d="M24.9,37.5h0.5l0,0.1c0,0.4-0.3,0.6-0.9,0.6c-0.4,0-0.6-0.1-0.8-0.2c-0.1-0.1-0.2-0.4-0.2-0.8
		c0-0.4,0.1-0.6,0.2-0.8c0.1-0.1,0.4-0.2,0.7-0.2c0.3,0,0.6,0.1,0.7,0.2c0.1,0.1,0.2,0.4,0.2,0.7l0,0.1H24c0,0,0,0.1,0,0.1
		c0,0.2,0,0.3,0.1,0.4c0.1,0.1,0.2,0.1,0.4,0.1c0.2,0,0.3,0,0.3-0.1C24.8,37.7,24.9,37.6,24.9,37.5z M24.9,36.9L24.9,36.9
		c0-0.2,0-0.3-0.1-0.4c-0.1,0-0.2-0.1-0.3-0.1c-0.2,0-0.3,0-0.3,0.1C24,36.6,24,36.7,24,36.9H24.9z"/>
	<path class="st1" d="M25.7,36.2h0.5l0,0.3l0,0c0.1-0.2,0.3-0.3,0.5-0.3c0.3,0,0.5,0.2,0.5,0.6l0,0.1h-0.4c0-0.1,0-0.1,0-0.1
		c0-0.2-0.1-0.3-0.2-0.3c-0.2,0-0.3,0.2-0.3,0.5v1.1h-0.5V36.2z"/>
	<path class="st1" d="M29.1,36.2l-0.6,1.9h-0.7l-0.6-1.9h0.5l0.3,0.9c0,0.1,0.1,0.2,0.1,0.4l0,0.2l0,0.2h0l0-0.2l0-0.2
		c0-0.1,0.1-0.3,0.1-0.4l0.2-0.9H29.1z"/>
	<path class="st1" d="M29.8,35.3v0.4h-0.5v-0.4H29.8z M29.8,36.2v1.9h-0.5v-1.9H29.8z"/>
	<path class="st1" d="M31.4,37.4h0.5l0,0.1l0,0.3c-0.1,0.3-0.3,0.4-0.8,0.4c-0.4,0-0.6-0.1-0.7-0.2c-0.1-0.1-0.2-0.4-0.2-0.8
		c0-0.4,0.1-0.7,0.2-0.8c0.1-0.1,0.4-0.2,0.7-0.2c0.3,0,0.6,0,0.7,0.1c0.1,0.1,0.2,0.3,0.2,0.6h-0.5c0-0.2-0.1-0.3-0.4-0.3
		c-0.2,0-0.3,0-0.3,0.1c0,0.1-0.1,0.2-0.1,0.5c0,0.3,0,0.4,0.1,0.5c0.1,0.1,0.2,0.1,0.4,0.1c0.2,0,0.3,0,0.3-0.1
		C31.4,37.6,31.4,37.5,31.4,37.4z"/>
	<path class="st1" d="M33.5,37.5H34l0,0.1c0,0.4-0.3,0.6-0.9,0.6c-0.4,0-0.6-0.1-0.8-0.2c-0.1-0.1-0.2-0.4-0.2-0.8
		c0-0.4,0.1-0.6,0.2-0.8c0.1-0.1,0.4-0.2,0.7-0.2c0.3,0,0.6,0.1,0.7,0.2c0.1,0.1,0.2,0.4,0.2,0.7l0,0.1h-1.3c0,0,0,0.1,0,0.1
		c0,0.2,0,0.3,0.1,0.4c0.1,0.1,0.2,0.1,0.4,0.1c0.2,0,0.3,0,0.3-0.1C33.5,37.7,33.5,37.6,33.5,37.5z M33.5,36.9L33.5,36.9
		c0-0.2,0-0.3-0.1-0.4c-0.1,0-0.2-0.1-0.3-0.1c-0.2,0-0.3,0-0.3,0.1c-0.1,0.1-0.1,0.2-0.1,0.4H33.5z"/>
	<path class="st1" d="M36,36.7h-0.5l0,0c0-0.1,0-0.2-0.1-0.2c0,0-0.2,0-0.3,0c-0.2,0-0.4,0.1-0.4,0.2c0,0.1,0,0.2,0.1,0.2
		c0,0,0.2,0,0.4,0c0.3,0,0.5,0.1,0.6,0.1c0.1,0.1,0.1,0.2,0.1,0.4c0,0.2-0.1,0.4-0.2,0.5c-0.1,0.1-0.4,0.1-0.7,0.1
		c-0.3,0-0.6,0-0.7-0.1c-0.1-0.1-0.2-0.2-0.2-0.5l0,0h0.5l0,0.1c0,0.2,0.1,0.3,0.4,0.3c0.3,0,0.4-0.1,0.4-0.3c0-0.2-0.1-0.2-0.3-0.2
		c-0.4,0-0.7,0-0.8-0.1c-0.1-0.1-0.2-0.2-0.2-0.5c0-0.2,0.1-0.4,0.2-0.5c0.1-0.1,0.4-0.1,0.7-0.1c0.3,0,0.5,0,0.7,0.1
		C35.9,36.3,36,36.5,36,36.7z"/>
	<path class="st1" d="M16.4,16.8l2,13.6h-3.6l-0.2-2.5h-1.3l-0.2,2.5H9.5l1.8-13.6H16.4z M14.5,25.5c-0.2-1.5-0.3-3.4-0.5-5.7
		c-0.3,2.6-0.6,4.5-0.7,5.7H14.5z"/>
	<path class="st2" d="M16.4,16.8l-0.2,0l2,13.4H15l-0.2-2.5h-1.6l-0.2,2.5H9.7L11.5,17h4.9V16.8l-0.2,0L16.4,16.8v-0.2h-5.3l-1.9,14
		h4.1l0.2-2.5h0.9l0.2,2.5h4.1l-2.1-14h-0.2V16.8z M14.5,25.5l0.2,0c-0.2-1.5-0.3-3.4-0.5-5.7l-0.4,0c-0.3,2.6-0.6,4.5-0.7,5.7
		l0,0.2h1.7l0-0.2L14.5,25.5v-0.2h-1.2v0.2l0.2,0c0.1-1.2,0.3-3.1,0.7-5.7l-0.2,0l-0.2,0c0.2,2.3,0.4,4.2,0.5,5.7L14.5,25.5v-0.2
		V25.5z"/>
	<rect x="28.2" y="16.8" class="st1" width="3.5" height="13.6"/>
	<polygon class="st2" points="31.7,16.8 31.5,16.8 31.5,30.2 28.4,30.2 28.4,17 31.7,17 31.7,16.8 31.5,16.8 31.7,16.8 31.7,16.6 
		28,16.6 28,30.6 31.9,30.6 31.9,16.6 31.7,16.6 	"/>
	<path class="st1" d="M40.2,20.9h-3.3v-1c0-0.5,0-0.8-0.1-0.9c-0.1-0.1-0.2-0.2-0.4-0.2c-0.2,0-0.4,0.1-0.5,0.3
		c-0.1,0.2-0.2,0.4-0.2,0.8c0,0.5,0.1,0.8,0.2,1c0.1,0.2,0.5,0.5,1,0.8c1.6,0.9,2.6,1.7,3,2.3c0.4,0.6,0.6,1.6,0.6,2.9
		c0,1-0.1,1.7-0.3,2.1c-0.2,0.5-0.7,0.8-1.3,1.2c-0.7,0.3-1.4,0.5-2.3,0.5c-0.9,0-1.8-0.2-2.4-0.5c-0.7-0.4-1.1-0.8-1.3-1.4
		c-0.2-0.6-0.3-1.3-0.3-2.4v-0.9h3.3v1.7c0,0.5,0,0.8,0.1,1c0.1,0.1,0.3,0.2,0.5,0.2c0.2,0,0.4-0.1,0.5-0.3c0.1-0.2,0.2-0.5,0.2-0.8
		c0-0.8-0.1-1.3-0.3-1.6c-0.2-0.2-0.8-0.7-1.7-1.2c-0.9-0.6-1.5-1-1.7-1.3c-0.3-0.3-0.5-0.6-0.7-1.1c-0.2-0.5-0.3-1.1-0.3-1.8
		c0-1,0.1-1.8,0.4-2.3c0.3-0.5,0.7-0.9,1.3-1.1c0.6-0.3,1.3-0.4,2.1-0.4c0.9,0,1.7,0.1,2.3,0.4c0.6,0.3,1.1,0.7,1.3,1.1
		c0.2,0.5,0.3,1.2,0.3,2.3V20.9z"/>
	<path class="st2" d="M40.2,20.9v-0.2h-3.1v-0.8c0-0.2,0-0.4,0-0.6c0-0.2-0.1-0.3-0.1-0.4l0,0c-0.1-0.1-0.2-0.2-0.3-0.2
		c-0.1,0-0.2-0.1-0.3-0.1c-0.1,0-0.3,0-0.4,0.1c-0.1,0.1-0.2,0.2-0.3,0.3c-0.1,0.2-0.2,0.5-0.2,0.9c0,0.5,0.1,0.8,0.2,1.1l0.2-0.1
		L35.7,21c0.1,0.2,0.2,0.3,0.4,0.4c0.2,0.1,0.4,0.3,0.7,0.5l0,0c1.6,0.9,2.5,1.7,2.9,2.3c0.4,0.5,0.6,1.5,0.6,2.8c0,1-0.1,1.6-0.3,2
		c-0.2,0.4-0.6,0.8-1.2,1.1c-0.6,0.3-1.3,0.4-2.2,0.4c-0.9,0-1.7-0.2-2.3-0.5c-0.6-0.3-1-0.8-1.2-1.3c-0.2-0.5-0.3-1.3-0.3-2.3v-0.7
		h2.9v1.4c0,0.3,0,0.5,0,0.7c0,0.2,0.1,0.3,0.1,0.4c0.1,0.1,0.2,0.2,0.3,0.2c0.1,0.1,0.2,0.1,0.4,0.1c0.1,0,0.3,0,0.4-0.1
		c0.1-0.1,0.2-0.2,0.3-0.3h0c0.1-0.2,0.2-0.5,0.2-0.9c0-0.4,0-0.8-0.1-1c-0.1-0.3-0.1-0.5-0.3-0.7l0,0l0,0c-0.1-0.1-0.3-0.3-0.6-0.5
		c-0.3-0.2-0.6-0.5-1.1-0.8l0,0c-0.9-0.6-1.5-1-1.7-1.3c-0.3-0.2-0.5-0.6-0.7-1c-0.2-0.4-0.3-1-0.3-1.7c0-1,0.1-1.8,0.4-2.2
		c0.2-0.4,0.6-0.8,1.2-1c0.6-0.3,1.2-0.4,2.1-0.4c0.9,0,1.6,0.1,2.3,0.4c0.6,0.3,1,0.6,1.2,1c0.2,0.4,0.3,1.1,0.3,2.2v0.5H40.2v-0.2
		V20.9h0.2v-0.5c0-1.1-0.1-1.9-0.3-2.4c-0.2-0.5-0.7-0.9-1.4-1.2c-0.7-0.3-1.5-0.5-2.4-0.5c-0.9,0-1.6,0.1-2.2,0.4
		c-0.6,0.3-1.1,0.7-1.4,1.2c-0.3,0.5-0.4,1.3-0.4,2.4c0,0.7,0.1,1.4,0.3,1.9c0.2,0.5,0.4,0.9,0.8,1.2c0.3,0.3,0.9,0.7,1.8,1.3l0,0
		l0,0c0.4,0.3,0.8,0.5,1.1,0.7c0.3,0.2,0.5,0.4,0.6,0.5l0.2-0.1l-0.2,0.1c0.1,0.1,0.1,0.2,0.2,0.5c0.1,0.2,0.1,0.6,0.1,0.9
		c0,0.3-0.1,0.6-0.1,0.7l0,0l0,0c0,0.1-0.1,0.1-0.1,0.1c-0.1,0-0.1,0-0.2,0c-0.1,0-0.2,0-0.2,0c0,0-0.1,0-0.1-0.1
		c0,0-0.1-0.1-0.1-0.3c0-0.1,0-0.4,0-0.6v-1.9h-3.7v1.1c0,1,0.1,1.8,0.3,2.4c0.2,0.6,0.7,1.1,1.4,1.5c0.7,0.4,1.6,0.6,2.5,0.6
		c0.9,0,1.7-0.2,2.4-0.5c0.7-0.3,1.2-0.7,1.4-1.3c0.3-0.5,0.4-1.2,0.4-2.2c0-1.4-0.2-2.4-0.7-3c-0.5-0.7-1.5-1.4-3-2.4l0,0l0,0
		c-0.3-0.2-0.5-0.3-0.6-0.4c-0.2-0.1-0.3-0.2-0.3-0.3l0,0l0,0c-0.1-0.2-0.2-0.5-0.2-0.9c0-0.3,0.1-0.6,0.1-0.7
		c0-0.1,0.1-0.1,0.1-0.1c0,0,0.1,0,0.2,0c0.1,0,0.1,0,0.2,0l0.1,0.1l0,0c0,0,0,0.1,0.1,0.2c0,0.1,0,0.3,0,0.5v1.2h3.7v-0.2H40.2z"/>
	<polygon class="st1" points="27.6,30.4 22.5,16.8 19,16.8 24.4,30.4 	"/>
	<polygon class="st2" points="27.6,30.4 27.8,30.3 22.6,16.6 18.7,16.6 24.2,30.6 27.9,30.6 27.8,30.3 27.6,30.4 27.6,30.2 
		24.5,30.2 19.3,17 22.3,17 27.4,30.5 27.6,30.4 27.6,30.2 	"/>
	<rect x="20.7" y="-0.4" transform="matrix(0.9487 0.3161 -0.3161 0.9487 8.9622 -5.8571)" class="st1" width="3.8" height="50.3"/>
	<polygon class="st2" points="32.3,1.5 32.3,1.3 28.6,0 12.5,48.1 16.5,49.4 32.5,1.3 32.3,1.3 32.3,1.5 32.1,1.4 16.2,48.9 
		13.1,47.8 28.8,0.5 32.2,1.7 32.3,1.5 32.1,1.4 	"/>
	<polygon class="st1" points="27.2,30 22.3,17 19.3,17 24.5,30.1 	"/>
</g>
</svg>
